<mxfile host="app.diagrams.net" modified="2020-10-24T18:25:33.076Z" agent="5.0 (Windows)" etag="85DxtqIRBbN-Irs1P6ba" version="13.8.1" type="github">
  <diagram id="-TMZJQe4dS-zmTzHG-hq" name="Kontainer Masuk">
    <mxGraphModel dx="865" dy="456" grid="1" gridSize="10" guides="1" tooltips="1" connect="1" arrows="1" fold="1" page="1" pageScale="1" pageWidth="850" pageHeight="1100" math="0" shadow="0">
      <root>
        <mxCell id="0" />
        <mxCell id="1" parent="0" />
        <mxCell id="9aZn1MoD-UJEwbmClbJA-1" value="" style="rounded=0;whiteSpace=wrap;html=1;fillColor=none;" vertex="1" parent="1">
          <mxGeometry x="80" y="10" width="680" height="710" as="geometry" />
        </mxCell>
        <mxCell id="9aZn1MoD-UJEwbmClbJA-16" value="" style="rounded=0;whiteSpace=wrap;html=1;fillColor=none;" vertex="1" parent="1">
          <mxGeometry x="80" y="10" width="680" height="40" as="geometry" />
        </mxCell>
        <mxCell id="9aZn1MoD-UJEwbmClbJA-18" value="" style="line;strokeWidth=2;direction=south;html=1;fillColor=none;" vertex="1" parent="1">
          <mxGeometry x="416" y="10" width="10" height="710" as="geometry" />
        </mxCell>
        <mxCell id="9aZn1MoD-UJEwbmClbJA-21" value="Admin TPP" style="text;strokeColor=none;fillColor=none;html=1;fontSize=18;fontStyle=1;verticalAlign=middle;align=center;" vertex="1" parent="1">
          <mxGeometry x="190" y="10" width="100" height="40" as="geometry" />
        </mxCell>
        <mxCell id="9aZn1MoD-UJEwbmClbJA-22" value="Sistem" style="text;strokeColor=none;fillColor=none;html=1;fontSize=18;fontStyle=1;verticalAlign=middle;align=center;" vertex="1" parent="1">
          <mxGeometry x="550" y="10" width="100" height="40" as="geometry" />
        </mxCell>
        <mxCell id="9aZn1MoD-UJEwbmClbJA-23" value="" style="ellipse;html=1;shape=startState;fillColor=#000000;strokeColor=#ff0000;fontSize=18;" vertex="1" parent="1">
          <mxGeometry x="220" y="60" width="30" height="30" as="geometry" />
        </mxCell>
        <mxCell id="9aZn1MoD-UJEwbmClbJA-24" value="" style="edgeStyle=orthogonalEdgeStyle;html=1;verticalAlign=bottom;endArrow=open;endSize=8;strokeColor=#ff0000;fontSize=18;" edge="1" source="9aZn1MoD-UJEwbmClbJA-23" parent="1">
          <mxGeometry relative="1" as="geometry">
            <mxPoint x="235" y="150" as="targetPoint" />
          </mxGeometry>
        </mxCell>
        <mxCell id="9aZn1MoD-UJEwbmClbJA-25" value="menerima data kontainer yang akan dikirim dari beacukai" style="rounded=1;whiteSpace=wrap;html=1;arcSize=40;fontColor=#000000;fillColor=#ffffc0;strokeColor=#ff0000;" vertex="1" parent="1">
          <mxGeometry x="137.5" y="150" width="195" height="50" as="geometry" />
        </mxCell>
        <mxCell id="9aZn1MoD-UJEwbmClbJA-26" value="" style="edgeStyle=orthogonalEdgeStyle;html=1;verticalAlign=bottom;endArrow=open;endSize=8;strokeColor=#ff0000;fontSize=18;" edge="1" source="9aZn1MoD-UJEwbmClbJA-25" parent="1">
          <mxGeometry relative="1" as="geometry">
            <mxPoint x="235" y="250" as="targetPoint" />
          </mxGeometry>
        </mxCell>
        <mxCell id="9aZn1MoD-UJEwbmClbJA-36" style="edgeStyle=orthogonalEdgeStyle;rounded=0;orthogonalLoop=1;jettySize=auto;html=1;fontSize=18;" edge="1" parent="1" source="9aZn1MoD-UJEwbmClbJA-32" target="9aZn1MoD-UJEwbmClbJA-34">
          <mxGeometry relative="1" as="geometry" />
        </mxCell>
        <mxCell id="9aZn1MoD-UJEwbmClbJA-32" value="menerima surat jalan lini satu dari supir truk" style="rounded=1;whiteSpace=wrap;html=1;arcSize=40;fontColor=#000000;fillColor=#ffffc0;strokeColor=#ff0000;" vertex="1" parent="1">
          <mxGeometry x="137.5" y="250" width="195" height="50" as="geometry" />
        </mxCell>
        <mxCell id="9aZn1MoD-UJEwbmClbJA-34" value="Mencatat kontainer masuk" style="rounded=1;whiteSpace=wrap;html=1;arcSize=40;fontColor=#000000;fillColor=#ffffc0;strokeColor=#ff0000;" vertex="1" parent="1">
          <mxGeometry x="520" y="250" width="190" height="50" as="geometry" />
        </mxCell>
        <mxCell id="9aZn1MoD-UJEwbmClbJA-35" value="" style="edgeStyle=orthogonalEdgeStyle;html=1;verticalAlign=bottom;endArrow=open;endSize=8;strokeColor=#ff0000;fontSize=18;entryX=0.5;entryY=0;entryDx=0;entryDy=0;" edge="1" source="9aZn1MoD-UJEwbmClbJA-34" parent="1" target="9aZn1MoD-UJEwbmClbJA-37">
          <mxGeometry relative="1" as="geometry">
            <mxPoint x="615" y="340" as="targetPoint" />
          </mxGeometry>
        </mxCell>
        <mxCell id="9aZn1MoD-UJEwbmClbJA-37" value="&lt;div&gt;Membuat SP2&lt;/div&gt;&lt;div&gt;/ Tila Cargo&lt;/div&gt;" style="rounded=1;whiteSpace=wrap;html=1;arcSize=40;fontColor=#000000;fillColor=#ffffc0;strokeColor=#ff0000;" vertex="1" parent="1">
          <mxGeometry x="520" y="347" width="190" height="53" as="geometry" />
        </mxCell>
        <mxCell id="9aZn1MoD-UJEwbmClbJA-38" value="" style="edgeStyle=orthogonalEdgeStyle;html=1;verticalAlign=bottom;endArrow=open;endSize=8;strokeColor=#ff0000;fontSize=18;" edge="1" source="9aZn1MoD-UJEwbmClbJA-37" parent="1">
          <mxGeometry relative="1" as="geometry">
            <mxPoint x="615" y="440" as="targetPoint" />
          </mxGeometry>
        </mxCell>
        <mxCell id="9aZn1MoD-UJEwbmClbJA-41" value="Mendata Kontainer Penimbunan" style="rounded=1;whiteSpace=wrap;html=1;arcSize=40;fontColor=#000000;fillColor=#ffffc0;strokeColor=#ff0000;" vertex="1" parent="1">
          <mxGeometry x="520" y="440" width="190" height="50" as="geometry" />
        </mxCell>
        <mxCell id="9aZn1MoD-UJEwbmClbJA-42" value="" style="edgeStyle=orthogonalEdgeStyle;html=1;verticalAlign=bottom;endArrow=open;endSize=8;strokeColor=#ff0000;fontSize=18;" edge="1" source="9aZn1MoD-UJEwbmClbJA-41" parent="1">
          <mxGeometry relative="1" as="geometry">
            <mxPoint x="615" y="532" as="targetPoint" />
          </mxGeometry>
        </mxCell>
        <mxCell id="9aZn1MoD-UJEwbmClbJA-43" value="Merekap seluruh data laporan" style="rounded=1;whiteSpace=wrap;html=1;arcSize=40;fontColor=#000000;fillColor=#ffffc0;strokeColor=#ff0000;" vertex="1" parent="1">
          <mxGeometry x="520" y="532" width="190" height="47" as="geometry" />
        </mxCell>
        <mxCell id="9aZn1MoD-UJEwbmClbJA-44" value="" style="edgeStyle=orthogonalEdgeStyle;html=1;verticalAlign=bottom;endArrow=open;endSize=8;strokeColor=#ff0000;fontSize=18;" edge="1" source="9aZn1MoD-UJEwbmClbJA-43" parent="1">
          <mxGeometry relative="1" as="geometry">
            <mxPoint x="615" y="617" as="targetPoint" />
          </mxGeometry>
        </mxCell>
        <mxCell id="9aZn1MoD-UJEwbmClbJA-45" value="" style="ellipse;html=1;shape=endState;fillColor=#000000;strokeColor=#ff0000;fontSize=18;" vertex="1" parent="1">
          <mxGeometry x="600" y="616" width="30" height="30" as="geometry" />
        </mxCell>
      </root>
    </mxGraphModel>
  </diagram>
</mxfile>
